General
Complete name                    : Trainspotting.mkv
Format                           : Matroska
File size                        : 941 MiB
Duration                         : 1h 29mn
Overall bit rate                 : 1 467 Kbps


Video
ID                               : 1
Format                           : AVC
Duration                         : 1h 29mn
Bit rate                         : 1 278 Kbps
Width                            : 720 pixels
Height                           : 552 pixels
Display aspect ratio             : 1.855
Frame rate                       : 25.000 fps
Resolution                       : 8 bits
Colorimetry                      : 4:2:0
Scan type                        : Progressive
Bits/(Pixel*Frame)               : 0.129
Stream size                      : 820 MiB (87%)
Writing library                  : x264 core 79

Audio
ID                               : 2
Format                           : MPEG Audio
Format version                   : Version 1
Format profile                   : Layer 3
Mode                             : Joint stereo / MS Stereo
Codec ID                         : A_MPEG/L3
Codec ID/Hint                    : MP3
Duration                         : 1h 29mn
Bit rate mode                    : Constant
Bit rate                         : 160 Kbps
Channel(s)                       : 2 channels
Sampling rate                    : 48.0 KHz
Stream size                      : 103 MiB (11%)
Language                         : English

Text #1
Language                         : Danish

Text #2
Language                         : Finnish

Text #3
Language                         : Swedish

Text #4
Language                         : Icelandic

Text #5
Language                         : Norwegian



